<?xml version="1.0" standalone="no"?><!-- Generator: Gravit.io --><svg xmlns="http://www.w3.org/2000/svg" xmlns:xlink="http://www.w3.org/1999/xlink" style="isolation:isolate" viewBox="0 0 256 256" width="256" height="256"><g transform="matrix(1,0,0,1,14,36.758)"><text transform="matrix(1,0,0,1,0,143.226)" style="font-family:&quot;Open Sans&quot;;font-weight:400;font-size:134px;font-style:normal;fill:#000000;stroke:none;">#!</text></g><path d=" M 147.98 132.001 L 192.582 183.263 L 237.809 133.275 C 237.809 133.275 237.809 133.275 237.809 133.273 C 246.824 120.713 246.051 102.696 236.001 91.204 C 225.956 79.714 209.768 78.329 198.201 87.974 C 195.411 90.299 193.88 91.581 193.88 91.581 C 193.88 91.581 192.37 90.228 189.629 87.776 C 178.299 77.638 161.931 78.426 151.379 89.626 C 140.829 100.822 139.368 118.948 147.966 131.985 C 147.972 131.997 147.976 132.001 147.976 132.001 L 147.98 132.001 Z " fill-rule="evenodd" fill="rgb(247,33,33)" fill-opacity="0.75"/></svg>